<svg xmlns="http://www.w3.org/2000/svg" width="60" height="60" viewBox="0 0 60 60"><title>  Facebook</title><description>  Created with Sketch (http://www.bohemiancoding.com/sketch)</description><g fill="none"><path d="M0.1 30C0.1 13.4 13.3 0 29.7 0 46 0 59.2 13.4 59.2 30 59.2 46.6 46 60 29.7 60 13.3 60 0.1 46.6 0.1 30ZM0.1 30" fill="#3B5998"/><path d="M32.1 46.3L32.1 30 36.6 30 37.2 24.4 32.1 24.4 32.1 21.6C32.1 20.1 32.3 19.3 34.4 19.3L37.1 19.3 37.1 13.7 32.7 13.7C27.4 13.7 25.5 16.4 25.5 21L25.5 24.4 22.2 24.4 22.2 30 25.5 30 25.5 46.3 32.1 46.3ZM32.1 46.3" fill="#FFF"/><path d="M59.2 30C59.2 46.6 46 60 29.7 60 23.6 60 18 58.2 13.3 55L47.2 5.8C54.5 11.3 59.2 20.1 59.2 30ZM59.2 30" fill-opacity="0.08"/></g></svg>
