<svg xmlns="http://www.w3.org/2000/svg" width="60" height="60" viewBox="0 0 60 60"><title>  Github</title><description>  Created with Sketch (http://www.bohemiancoding.com/sketch)</description><g fill="none"><path d="M0.3 30C0.3 13.4 13.6 0 29.9 0 46.2 0 59.4 13.4 59.4 30 59.4 46.6 46.2 60 29.9 60 13.6 60 0.3 46.6 0.3 30ZM0.3 30" fill="#333"/><path d="M18.2 31.9C19.6 34.5 22.3 36 26.8 36.4 26.2 36.9 25.4 37.9 25.3 38.9 24.5 39.5 22.8 39.6 21.6 39.2 19.8 38.7 19.1 35.2 16.5 35.7 15.9 35.8 16 36.2 16.5 36.5 17.3 37 18.1 37.7 18.7 39 19.1 40.1 20.1 42 23.1 42 24.2 42 25.1 41.9 25.1 41.9 25.1 41.9 25.1 44.6 25.1 45.7 25.1 46.9 23.5 47.2 23.5 47.8 23.5 48.1 24 48.1 24.4 48.1 25.3 48.1 27.1 47.4 27.1 46.1 27.1 45.1 27.1 41.7 27.1 41.1 27.1 39.8 27.8 39.4 27.8 39.4 27.8 39.4 27.9 46.3 27.7 47.2 27.4 48.3 26.8 48.2 26.8 48.7 26.8 49.4 29 48.9 29.7 47.3 30.3 46 30.1 39.2 30.1 39.2L30.7 39.2C30.7 39.2 30.7 42.3 30.7 43.7 30.6 45.2 30.5 47.1 31.4 48 32 48.5 33.9 49.6 33.9 48.6 33.9 48.1 32.8 47.6 32.8 46.2L32.8 39.5C33.7 39.5 33.5 41.7 33.5 41.7L33.6 45.8C33.6 45.8 33.4 47.3 35.2 47.9 35.9 48.1 37.2 48.2 37.3 47.8 37.3 47.4 35.6 46.9 35.6 45.7 35.6 45 35.7 44.6 35.7 41.5 35.7 38.5 35.2 37.3 33.8 36.4 38.2 36 41 34.9 42.3 31.9 42.4 31.9 42.9 30.6 42.8 30.6 43.1 29.5 43.3 28.2 43.3 26.6 43.3 22.4 41.3 20.9 40.9 20.2 41.5 17 40.8 15.6 40.5 15.1 39.4 14.7 36.5 16.1 35 17.1 32.4 16.4 27.1 16.5 25.1 17.3 21.4 14.7 19.4 15.1 19.4 15.1 19.4 15.1 18.2 17.4 19.1 20.7 17.9 22.2 17 23.3 17 26.2 17 27.8 17.2 29.3 17.6 30.6 17.6 30.6 18.2 31.9 18.2 31.9ZM18.2 31.9" fill="#FFF"/><path d="M59.4 30C59.4 46.6 46.2 60 29.9 60 23.8 60 18.2 58.2 13.5 55L47.4 5.8C54.7 11.3 59.4 20.1 59.4 30ZM59.4 30" fill-opacity="0.08"/></g></svg>
 
