<svg xmlns="http://www.w3.org/2000/svg" width="60" height="60" viewBox="0 0 60 60"><style>.a{fill:#FFF;}</style><title>  LinkedIN</title><description>  Created with Sketch (http://www.bohemiancoding.com/sketch)</description><g fill="none"><path d="M0.4 30C0.4 13.4 13.7 0 30 0 46.3 0 59.6 13.4 59.6 30 59.6 46.6 46.3 60 30 60 13.7 60 0.4 46.6 0.4 30ZM0.4 30" fill="#007BB6"/><path d="M22.5 23.7L15.8 23.7 15.8 44.1 22.5 44.1 22.5 23.7ZM22.5 23.7" class="a"/><path d="M22.9 17.4C22.9 15.4 21.5 13.9 19.2 13.9 16.9 13.9 15.4 15.4 15.4 17.4 15.4 19.4 16.8 20.9 19.1 20.9L19.1 20.9C21.5 20.9 22.9 19.4 22.9 17.4ZM22.9 17.4" class="a"/><path d="M46.6 32.4C46.6 26.2 43.3 23.2 38.9 23.2 35.3 23.2 33.7 25.2 32.9 26.6L32.9 23.7 26.2 23.7C26.3 25.6 26.2 44.1 26.2 44.1L32.9 44.1 32.9 32.7C32.9 32.1 32.9 31.5 33.1 31.1 33.6 29.9 34.7 28.6 36.5 28.6 38.9 28.6 39.9 30.5 39.9 33.2L39.9 44.1 46.6 44.1 46.6 32.4ZM46.6 32.4" class="a"/><path d="M59.6 30C59.6 46.6 46.3 60 30 60 23.9 60 18.3 58.2 13.6 55L47.5 5.8C54.8 11.3 59.6 20.1 59.6 30ZM59.6 30" fill-opacity="0.08"/></g></svg>
