<svg xmlns="http://www.w3.org/2000/svg" width="60" height="60" viewBox="0 0 60 60"><title>  Twitter</title><description>  Created with Sketch (http://www.bohemiancoding.com/sketch)</description><g fill="none"><path d="M0 30C0 13.4 13.5 0 30 0 46.6 0 60.1 13.4 60.1 30 60.1 46.6 46.6 60 30 60 13.5 60 0 46.6 0 30ZM0 30" fill="#4099FF"/><path d="M29.3 23.9L29.4 24.9 28.3 24.8C24.5 24.3 21.2 22.7 18.3 19.9L16.9 18.5 16.6 19.5C15.8 21.8 16.3 24.2 17.9 25.8 18.7 26.7 18.5 26.8 17.1 26.3 16.6 26.1 16.1 26 16.1 26 16 26.2 16.5 28.1 16.9 28.9 17.4 29.9 18.5 31 19.7 31.6L20.8 32.1 19.5 32.1C18.4 32.1 18.3 32.1 18.5 32.6 18.9 34 20.5 35.4 22.4 36L23.7 36.5 22.5 37.2C20.9 38.1 18.9 38.7 16.9 38.7 16 38.8 15.2 38.8 15.2 38.9 15.2 39.1 17.8 40.3 19.2 40.8 23.7 42.1 29 41.6 33 39.2 35.8 37.5 38.7 34.2 40 31 40.7 29.3 41.4 26.1 41.4 24.6 41.4 23.7 41.5 23.5 42.7 22.4 43.4 21.7 44 20.9 44.1 20.7 44.3 20.3 44.3 20.3 43.3 20.7 41.5 21.3 41.2 21.2 42.1 20.3 42.8 19.6 43.5 18.4 43.5 18 43.5 18 43.2 18.1 42.9 18.3 42.5 18.5 41.6 18.8 41 19L39.9 19.3 38.8 18.6C38.3 18.3 37.5 17.8 37.1 17.7 36 17.4 34.4 17.4 33.4 17.8 30.8 18.7 29.1 21.2 29.3 23.9ZM29.3 23.9" fill="#FFF"/><path d="M60.1 30C60.1 46.6 46.6 60 30 60 23.9 60 18.2 58.2 13.4 55L47.8 5.8C55.3 11.3 60.1 20.1 60.1 30ZM60.1 30" fill-opacity="0.08"/></g></svg>
